<svg xmlns="http://www.w3.org/2000/svg" viewBox="0 0 900 960" fill="none">
  <defs>
    <linearGradient id="backdrop" x1="78" y1="72" x2="827" y2="891" gradientUnits="userSpaceOnUse">
      <stop stop-color="#183866"/>
      <stop offset="1" stop-color="#09172D"/>
    </linearGradient>
    <linearGradient id="blue" x1="244" y1="185" x2="548" y2="604" gradientUnits="userSpaceOnUse">
      <stop stop-color="#1764A6"/>
      <stop offset="1" stop-color="#0A2A50"/>
    </linearGradient>
    <linearGradient id="gold" x1="618" y1="438" x2="820" y2="792" gradientUnits="userSpaceOnUse">
      <stop stop-color="#E5C963"/>
      <stop offset="1" stop-color="#B28C30"/>
    </linearGradient>
    <linearGradient id="paper" x1="169" y1="447" x2="532" y2="868" gradientUnits="userSpaceOnUse">
      <stop stop-color="#FFFDF7"/>
      <stop offset="1" stop-color="#E9E4D8"/>
    </linearGradient>
    <filter id="shadow" x="44" y="61" width="822" height="850" color-interpolation-filters="sRGB" filterUnits="userSpaceOnUse">
      <feFlood flood-opacity="0" result="BackgroundImageFix"/>
      <feColorMatrix in="SourceAlpha" values="0 0 0 0 0 0 0 0 0 0 0 0 0 0 0 0 0 0 127 0" result="hardAlpha"/>
      <feOffset dy="22"/>
      <feGaussianBlur stdDeviation="22"/>
      <feComposite in2="hardAlpha" operator="out"/>
      <feColorMatrix values="0 0 0 0 0.01 0 0 0 0 0.04 0 0 0 0 0.09 0 0 0 0.3 0"/>
      <feBlend in2="BackgroundImageFix" result="effect1_dropShadow"/>
      <feBlend in="SourceGraphic" in2="effect1_dropShadow" result="shape"/>
    </filter>
    <pattern id="dots" width="22" height="22" patternUnits="userSpaceOnUse">
      <circle cx="2" cy="2" r="1.5" fill="#fff" fill-opacity=".14"/>
    </pattern>
  </defs>

  <g filter="url(#shadow)">
    <rect x="88" y="87" width="724" height="724" rx="48" fill="url(#backdrop)"/>
    <rect x="88" y="87" width="724" height="724" rx="48" fill="url(#dots)"/>
    <circle cx="708" cy="181" r="150" fill="#D0B04F" fill-opacity=".12"/>
    <circle cx="173" cy="723" r="157" fill="#149AD6" fill-opacity=".12"/>

    <!-- Folded brochure -->
    <g transform="rotate(-9 355 380)">
      <rect x="188" y="157" width="358" height="452" rx="18" fill="#061326" fill-opacity=".45"/>
      <rect x="176" y="145" width="358" height="452" rx="18" fill="url(#blue)"/>
      <path d="M194 163h322v205H194z" fill="#0D2949"/>
      <path d="M194 163h322v205H194z" fill="url(#dots)"/>
      <path d="M194 331c93-56 211-34 322-99v136H194v-37Z" fill="#0AA1D6" fill-opacity=".88"/>
      <path d="M194 370c108-53 214-19 322-71v59c-109 51-217 19-322 71v-59Z" fill="#D8B648"/>
      <rect x="219" y="200" width="91" height="19" rx="9.5" fill="#D9B74C"/>
      <rect x="219" y="235" width="237" height="18" rx="9" fill="#fff"/>
      <rect x="219" y="266" width="182" height="13" rx="6.5" fill="#fff" fill-opacity=".7"/>
      <rect x="219" y="287" width="206" height="13" rx="6.5" fill="#fff" fill-opacity=".45"/>
      <path d="M219 516h211" stroke="#fff" stroke-opacity=".52" stroke-width="3" stroke-linecap="round"/>
      <path d="M219 538h162" stroke="#fff" stroke-opacity=".32" stroke-width="3" stroke-linecap="round"/>
    </g>

    <!-- Business cards -->
    <g transform="rotate(8 634 325)">
      <rect x="531" y="205" width="220" height="142" rx="13" fill="#041124" fill-opacity=".55"/>
      <rect x="520" y="191" width="220" height="142" rx="13" fill="#F8F6EF"/>
      <path d="M520 286c70-48 136-49 220-9v56H520v-47Z" fill="#D5B248"/>
      <circle cx="568" cy="239" r="18" fill="#123A68"/>
      <path d="M560 239h16m-8-8v16" stroke="#E5C65A" stroke-width="4" stroke-linecap="round"/>
      <rect x="600" y="225" width="107" height="9" rx="4.5" fill="#173254"/>
      <rect x="600" y="244" width="79" height="7" rx="3.5" fill="#8190A0"/>
    </g>
    <g transform="rotate(8 630 391)">
      <rect x="549" y="303" width="218" height="140" rx="13" fill="#F6F8FA"/>
      <path d="M549 303h218v19H549z" fill="#0A9ED2"/>
      <rect x="570" y="349" width="118" height="10" rx="5" fill="#18375D"/>
      <rect x="570" y="369" width="166" height="7" rx="3.5" fill="#AAB4BF"/>
      <rect x="570" y="384" width="143" height="7" rx="3.5" fill="#AAB4BF"/>
      <circle cx="728" cy="414" r="14" fill="#D9B64B"/>
    </g>

    <!-- Printed packaging -->
    <g transform="rotate(7 680 623)">
      <path d="m591 461 186 20v259l-186-21V461Z" fill="#041326" fill-opacity=".38"/>
      <path d="m579 449 186 20v259l-186-21V449Z" fill="url(#gold)"/>
      <path d="m579 449 93 10v259l-93-11V449Z" fill="#E9CC69"/>
      <path d="m672 459 93 10v259l-93-10V459Z" fill="#BE9B3C"/>
      <path d="m620 449 29-48 89 10 27 58-93-10-52-10Z" fill="#D5B44E"/>
      <path d="m649 401 89 10 27 58-93-10-23-58Z" fill="#EBD477"/>
      <circle cx="674" cy="558" r="34" fill="#15375D"/>
      <path d="M658 558h32m-16-16v32" stroke="#E4C456" stroke-width="5" stroke-linecap="round"/>
      <rect x="620" y="613" width="102" height="9" rx="4.5" fill="#173254" fill-opacity=".83"/>
      <rect x="620" y="632" width="77" height="7" rx="3.5" fill="#173254" fill-opacity=".5"/>
    </g>

    <!-- Compact banner print -->
    <g transform="rotate(-4 343 709)">
      <rect x="173" y="631" width="327" height="152" rx="18" fill="url(#paper)"/>
      <path d="M173 649a18 18 0 0 1 18-18h291a18 18 0 0 1 18 18v20H173v-20Z" fill="#0C315B"/>
      <rect x="202" y="695" width="112" height="11" rx="5.5" fill="#15395F"/>
      <rect x="202" y="716" width="163" height="8" rx="4" fill="#A4ADB7"/>
      <rect x="202" y="734" width="136" height="8" rx="4" fill="#A4ADB7"/>
      <path d="M403 685h66v62h-66z" fill="#0A9ED2"/>
      <path d="M412 734c13-29 27-38 48-43v56h-48v-13Z" fill="#E6C65D"/>
      <path d="M429 688v-13m14 13v-13m14 13v-13" stroke="#15395F" stroke-width="4" stroke-linecap="round"/>
    </g>

    <circle cx="129" cy="355" r="5" fill="#E2C45D"/>
    <circle cx="772" cy="508" r="6" fill="#1BA3D6"/>
    <circle cx="531" cy="755" r="4" fill="#fff" fill-opacity=".65"/>
  </g>
</svg>
